<?xml version="1.0" encoding="utf-8"?>
<!-- Generator: Adobe Illustrator 24.0.2, SVG Export Plug-In . SVG Version: 6.00 Build 0)  -->
<svg version="1.1" id="Layer_1" xmlns="http://www.w3.org/2000/svg" xmlns:xlink="http://www.w3.org/1999/xlink" x="0px" y="0px"
	 width="179.3px" height="30.8px" viewBox="0 0 179.3 30.8" style="enable-background:new 0 0 179.3 30.8;" xml:space="preserve">
<style type="text/css">
	.st0{fill-rule:evenodd;clip-rule:evenodd;fill:#00AEEF;}
	.st1{fill-rule:evenodd;clip-rule:evenodd;fill:#2E3192;}
	.st2{fill:#2E3192;}
	.st3{fill:#00AEEF;}
</style>
<g>
	<path class="st0" d="M52.4,19.2l0.1-0.3h1.5L57,6.1h-1.5l0.1-0.3H63l-0.1,0.3h-1.5l-3.1,12.8h1.5l-0.1,0.3H52.4L52.4,19.2z
		 M63.4,19.2l0.1-0.3H65l3.1-12.8h-0.3c-1.1,0-2.1,0.3-2.9,1c-0.8,0.7-1.5,1.6-1.9,2.8h-0.3l1-4.1h13.1l-1,4.1h-0.3
		c0.2-1.2,0-2.1-0.5-2.8c-0.5-0.7-1.3-1-2.4-1h-0.3l-3.1,12.8h1.5l-0.1,0.3H63.4L63.4,19.2z M76.1,14.6h3.5L78.8,10L76.1,14.6
		L76.1,14.6z M71.9,19.2l0.1-0.3h0.1c0.3,0,0.5-0.1,0.7-0.2c0.2-0.1,0.4-0.3,0.5-0.5L81,5.6h1.6l2,13.3h0.8l-0.1,0.3h-6.3l0.1-0.3h1
		l-0.7-4h-3.8l-1.5,2.6c-0.1,0.2-0.2,0.3-0.2,0.4c0,0.1-0.1,0.2-0.1,0.2c-0.1,0.3,0,0.4,0.1,0.5c0.1,0.1,0.4,0.2,0.9,0.2h0.2l0,0.3
		H71.9L71.9,19.2z M85.1,19.2l0.1-0.3h1.5l3.1-12.8h-1.5l0.1-0.3h7.3l-0.1,0.3h-1.5L91,18.9c0.2,0,0.3,0,0.5,0c0.2,0,0.5,0,0.8,0
		c1.6,0,2.9-0.3,3.9-0.9c0.9-0.6,1.7-1.5,2.2-2.9h0.3l-1,4H85.1L85.1,19.2z"/>
	<path class="st1" d="M113.1,14.9h0.4l-1,4.3h-0.3c0-0.2,0-0.4-0.1-0.5c-0.1-0.1-0.2-0.2-0.4-0.2c0,0-0.6,0.2-1.6,0.5
		c-1,0.3-2.1,0.5-3.1,0.5c-1,0-2-0.2-2.8-0.5c-0.9-0.3-1.6-0.8-2.2-1.4c-0.6-0.7-1.1-1.4-1.3-2.2c-0.2-0.8-0.2-1.7,0-2.7
		c0.3-1.1,0.8-2.2,1.5-3.2c0.8-1,1.7-1.9,2.7-2.5c0.8-0.5,1.6-0.9,2.5-1.1c0.9-0.3,1.8-0.4,2.7-0.4c1,0,1.9,0.2,2.9,0.5
		c0.9,0.3,1.4,0.5,1.5,0.5c0.2,0,0.4-0.1,0.5-0.2c0.1-0.1,0.2-0.3,0.3-0.4l0.3,0l-1,4.3h-0.3c0-1.4-0.3-2.5-0.9-3.2
		c-0.6-0.7-1.5-1.1-2.8-1.1c-0.5,0-1,0.1-1.5,0.3c-0.5,0.2-0.9,0.4-1.3,0.8c-0.5,0.4-0.9,1-1.2,1.7c-0.3,0.7-0.7,1.9-1.1,3.6
		c-0.4,1.8-0.7,3-0.8,3.7c-0.1,0.7-0.1,1.2,0.1,1.7c0.1,0.5,0.4,0.9,0.8,1.2c0.4,0.3,1,0.4,1.7,0.4c1.3,0,2.5-0.4,3.5-1.1
		C111.8,17.3,112.6,16.3,113.1,14.9L113.1,14.9z M123.1,6.1l-1.5,6c0.1,0,0.1,0,0.2,0c0.1,0,0.2,0,0.4,0c1.1,0,1.9-0.2,2.4-0.6
		c0.5-0.4,0.8-1.1,1.1-2.1c0.3-1.4,0.3-2.3,0.1-2.7c-0.3-0.5-1-0.7-2.1-0.7c-0.2,0-0.3,0-0.4,0C123.2,6.1,123.2,6.1,123.1,6.1
		L123.1,6.1z M114.1,19.2l0.1-0.3h1.5l3.1-12.8h-1.5l0.1-0.3h7c2.4,0,4,0.2,4.9,0.7C130,7,130.3,7.9,130,9c-0.2,0.9-0.8,1.6-1.7,2.2
		c-0.9,0.6-2.1,0.9-3.5,1c1.1,0.2,1.9,0.3,2.4,0.5c0.5,0.2,0.8,0.4,1,0.7c0.2,0.2,0.3,0.5,0.3,0.9c0,0.3-0.1,0.9-0.3,1.7l-0.5,2
		c-0.1,0.4-0.1,0.7-0.1,0.8c0,0.1,0.2,0.2,0.4,0.2c0.1,0,0.3-0.1,0.5-0.2c0.2-0.1,0.5-0.3,0.7-0.6l0.3,0.2c-0.4,0.4-0.8,0.8-1.3,1
		c-0.5,0.2-1.1,0.3-1.8,0.3c-1.1,0-1.8-0.3-2.3-0.9c-0.4-0.6-0.5-1.4-0.2-2.6l0.5-1.9c0.2-0.7,0.1-1.1-0.2-1.3
		c-0.3-0.2-0.9-0.4-1.9-0.4c-0.2,0-0.4,0-0.5,0c-0.1,0-0.2,0-0.4,0l-1.6,6.4h1.5l-0.1,0.3H114.1L114.1,19.2z M136.1,12.5
		c-0.7,2.7-0.9,4.5-0.7,5.4c0.2,0.9,0.8,1.3,1.9,1.3c1.1,0,1.9-0.4,2.6-1.3c0.6-0.9,1.3-2.7,1.9-5.4c0.7-2.7,0.9-4.5,0.7-5.4
		c-0.2-0.9-0.8-1.3-1.9-1.3c-1.1,0-1.9,0.4-2.6,1.3C137.4,8.1,136.8,9.8,136.1,12.5L136.1,12.5z M131.5,12.5c0.2-1,0.7-2,1.2-2.8
		c0.6-0.8,1.3-1.6,2.2-2.3c0.9-0.7,1.8-1.2,2.8-1.5c1-0.3,1.9-0.5,3-0.5c1,0,1.9,0.2,2.7,0.5c0.8,0.3,1.5,0.8,2.1,1.5
		c0.6,0.7,1,1.4,1.2,2.3c0.2,0.8,0.1,1.7-0.1,2.8c-0.3,1-0.7,2-1.2,2.8c-0.6,0.8-1.3,1.6-2.2,2.3c-0.9,0.7-1.8,1.2-2.8,1.5
		c-0.9,0.3-1.9,0.5-3,0.5c-1,0-1.9-0.2-2.7-0.5c-0.8-0.3-1.5-0.8-2-1.5c-0.6-0.7-1-1.5-1.1-2.3C131.2,14.5,131.2,13.6,131.5,12.5
		L131.5,12.5z"/>
	<polygon class="st1" points="4.8,21.3 173.9,21.3 173.9,22.4 4.8,22.4 4.8,21.3 	"/>
	<polygon class="st0" points="4.8,20.8 173.9,20.8 173.9,21.1 4.8,21.1 4.8,20.8 	"/>
	<polygon class="st0" points="4.8,23.6 173.9,23.6 173.9,24.7 4.8,24.7 4.8,23.6 	"/>
	<polygon class="st1" points="4.8,25 173.9,25 173.9,25.3 4.8,25.3 4.8,25 	"/>
	<path class="st0" d="M16.3,13.6h7.3l-3.3,13h-7.4L16.3,13.6L16.3,13.6z M17.7,7.8H25L23.9,12h-7.4L17.7,7.8L17.7,7.8z"/>
	<path class="st2" d="M16.2,13.4h7.5l0,0.2l-3.3,13l0,0.1h-7.7l0-0.2l3.5-13L16.2,13.4L16.2,13.4z M16.4,13.7L13,26.4h7.2l3.2-12.7
		H16.4L16.4,13.7z M17.6,7.7h7.6l0,0.2L24.1,12l0,0.1h-7.6l0-0.2l1.1-4.2L17.6,7.7L17.6,7.7z M17.8,7.9l-1,3.9h7.1l1-3.9H17.8
		L17.8,7.9z"/>
	<path class="st1" d="M43.8,18.9l-1.3,4.8c-2.4,1.3-8.2,0.7-10.3-0.6c-1.3-0.8-2.5-1.7-3.2-2.9c-1.7-2.6-1.5-5.9,0.1-8.5h9
		c-4.6,3.3-1.7,7.3,3.6,7.3C42.3,19.1,43,19.1,43.8,18.9L43.8,18.9z M30,9.8c1.1-1.4,2.8-2.6,5.1-3.5C37.5,5.5,39.9,5,42.5,5
		c1.7,0,3.7,0.3,4.6,1l-1,3.8H30L30,9.8z"/>
	<path class="st3" d="M44,18.8L43.9,19l-1.3,4.8l0,0.1l-0.1,0c-1.2,0.6-3.1,0.8-5,0.7c-2.2-0.1-4.3-0.6-5.5-1.2
		c-0.7-0.4-1.3-0.8-1.8-1.3c-0.6-0.5-1-1-1.4-1.6l0,0c-0.8-1.3-1.2-2.8-1.2-4.2c0-1.5,0.5-3.1,1.3-4.4l0-0.1H38l0.1,0.2
		c-1.1,0.8-1.8,1.6-2.1,2.5c-0.2,0.7-0.2,1.3,0,1.9c0.2,0.6,0.7,1.1,1.3,1.6c1,0.7,2.5,1.2,4.2,1.2c0.4,0,0.7,0,1.1-0.1
		c0.4,0,0.7-0.1,1.1-0.2L44,18.8L44,18.8z M43.6,19.1c-0.3,0-0.6,0.1-0.9,0.1c-0.4,0-0.7,0.1-1.1,0.1c-1.8,0-3.3-0.5-4.4-1.2
		c-0.7-0.5-1.1-1-1.4-1.7c-0.3-0.6-0.3-1.4,0-2.1c0.3-0.8,0.9-1.6,1.8-2.3h-8.5c-0.8,1.3-1.2,2.8-1.2,4.2c0,1.4,0.3,2.8,1.1,4.1l0,0
		c0.4,0.6,0.8,1.1,1.4,1.6c0.5,0.5,1.1,0.9,1.8,1.3c1.1,0.6,3.2,1.1,5.3,1.2c1.9,0.1,3.7-0.1,4.8-0.6L43.6,19.1L43.6,19.1z
		 M29.7,9.9l0.2-0.2c0.6-0.7,1.3-1.4,2.2-2c0.9-0.6,1.9-1.1,3.1-1.5c1.2-0.4,2.4-0.8,3.6-1c1.2-0.2,2.5-0.3,3.8-0.3
		c0.9,0,1.9,0.1,2.8,0.3c0.8,0.2,1.5,0.4,1.9,0.8L47.2,6l0,0.1l-1,3.8l0,0.1H29.7L29.7,9.9z M30.3,9.7h15.6l0.9-3.6
		c-0.4-0.3-1-0.5-1.7-0.7c-0.9-0.2-1.8-0.3-2.7-0.3c-1.3,0-2.5,0.1-3.7,0.3c-1.2,0.2-2.4,0.6-3.5,1c-1.1,0.4-2.1,0.9-3,1.5
		C31.5,8.5,30.8,9.1,30.3,9.7L30.3,9.7z"/>
</g>
</svg>
