<svg xmlns="http://www.w3.org/2000/svg" viewBox="0 0 21 24.5"><title>bag</title><path d="M5.83333,25.6665A2.34017,2.34017,0,0,1,3.5,23.3332v-14A2.34019,2.34019,0,0,1,5.83333,6.99984H8.16667A5.62205,5.62205,0,0,1,9.87292,2.87275,5.622,5.622,0,0,1,14,1.1665a5.62206,5.62206,0,0,1,4.1271,1.70625,5.622,5.622,0,0,1,1.7062,4.12709h2.3334A2.34015,2.34015,0,0,1,24.5,9.33317v14a2.34014,2.34014,0,0,1-2.3333,2.3333Zm0-2.3333H22.1667v-14H5.83333Zm8.16667-7a5.6221,5.6221,0,0,0,4.1271-1.7063,5.622,5.622,0,0,0,1.7062-4.1271H17.5a3.48533,3.48533,0,0,1-3.5,3.5,3.48533,3.48533,0,0,1-3.5-3.5H8.16667a5.62206,5.62206,0,0,0,1.70625,4.1271A5.622,5.622,0,0,0,14,16.3332ZM10.5,6.99984h7a3.48539,3.48539,0,0,0-3.5-3.5,3.48539,3.48539,0,0,0-3.5,3.5Z" transform="translate(-3.5 -1.1665)" fill="#fff"/></svg>