<svg xmlns="http://www.w3.org/2000/svg" width="358" height="74" viewBox="0 0 358 74" fill="none"><g clip-path="url(#clip0_945_40838)"><path d="M122.453 46.5866C126.004 46.5866 128.945 45.8236 132.083 43.8937L131.069 52.0172C128.075 53.6419 124.686 54.351 120.472 54.351C111.704 54.351 102.478 50.0335 102.478 35.7254C102.478 22.4226 110.081 15.5199 120.58 15.5199C124.327 15.5199 128.03 16.3367 130.621 17.9076L131.84 26.1837C128.801 24.0473 125.6 23.3382 122.31 23.3382C115.11 23.3382 111.103 27.5032 111.103 34.9624C111.103 43.7411 116.321 46.5866 122.462 46.5866M199.397 42.8794L193.668 27.5032H185.088L195.291 53.6419H202.051L212.899 27.5032H205.126L199.397 42.8794ZM149.18 26.8389C140.51 26.8389 135.391 32.5747 135.391 40.5905C135.391 48.6063 140.412 54.2433 149.126 54.2433C157.841 54.2433 162.916 48.6063 162.916 40.5366C162.916 32.467 158.002 26.8299 149.18 26.8299M149.18 47.6907C145.836 47.6907 143.397 45.1504 143.397 40.4828C143.397 35.8151 145.728 33.3736 149.18 33.3736C152.632 33.3736 154.909 35.9588 154.909 40.4828C154.909 45.0068 152.632 47.6907 149.18 47.6907ZM181.681 27.0992C179.305 27.4852 177.126 28.6072 175.288 30.8423L173.612 27.4942H167.533V53.6329H175.539V37.4398C177.404 36.5512 179.529 35.869 181.672 35.5997V27.0992H181.681ZM350.146 27.4942L344.471 44.8542L338.491 27.4942H329.722L340.167 52.6725L335.909 63.435H343.87L358.018 27.5032H350.164L350.146 27.4942ZM315.234 26.8838C312.141 26.8838 309.2 27.6468 306.815 29.065L305.497 36.8833C308.088 35.0522 310.975 34.1456 313.916 34.1456C316.856 34.1456 319.089 35.1599 319.699 38.0053C307.936 38.7145 303.731 41.4073 303.731 46.5866C303.731 51.7659 307.586 54.1536 312.607 54.1536C316.157 54.1536 318.838 52.8341 320.613 50.8054L322.083 53.6509H327.866V39.0825C327.866 30.1511 322.801 26.9017 315.243 26.9017M319.86 47.1072C318.596 48.1215 316.713 48.7319 315.045 48.7319C312.616 48.7319 311.45 47.8164 311.45 45.8865C311.45 43.5526 313.629 42.1793 319.869 41.524V47.1072H319.86ZM233.117 45.2312C231.593 46.2455 230.275 46.6494 228.706 46.6494C226.07 46.6494 224.501 45.4825 224.501 41.4702V27.5121H216.495V42.3857C216.495 51.0657 220.144 54.2613 226.33 54.2613C229.064 54.2613 231.503 53.1931 233.78 51.2632L235.502 53.6509H241.132V27.5121H233.126V45.2312H233.117ZM259.593 38.2297L258.275 37.8707C255.28 37.1616 254.778 36.4525 254.778 35.2855C254.778 33.9122 255.639 33.2031 258.024 33.2031C260.408 33.2031 264.156 34.0109 266.442 35.1778L265.833 28.4816C263.86 27.4673 260.866 26.8569 258.024 26.8569C251.03 26.8569 247.48 29.6485 247.48 34.9265C247.48 39.1363 249.712 41.0662 254.724 42.3409L255.988 42.6999C259.333 43.6155 259.942 44.172 259.942 45.3928C259.942 47.1701 258.723 47.8253 256.239 47.8253C252.743 47.8253 249.094 46.8649 246.709 45.3928L247.319 52.1968C249.497 53.4175 252.994 54.1266 256.544 54.1266C263.134 54.1266 267.447 51.4338 267.447 45.698C267.447 42.0446 265.824 39.8096 259.593 38.2387M286.83 16.3098H274.26V53.6689H282.572V44.5311H286.319C295.751 44.5311 301.884 38.4362 301.884 30.1691C301.884 21.902 295.904 16.3098 286.821 16.3098M285.557 37.5296H282.563V23.5716H285.557C290.677 23.5716 293.214 26.1118 293.214 30.6807C293.214 35.2496 290.829 37.5296 285.557 37.5296Z" fill="white"/><g clip-path="url(#clip1_945_40838)"><path d="M40.4939 27.4839C40.4894 27.5333 40.4849 27.5782 40.4759 27.6276C43.3545 18.5516 50.8812 13.5264 62.3238 13.5264C69.087 13.5264 75.5987 14.9051 81.8634 18.9109L79.609 4.50878C58.5 -1.00004 39.5 9 40.4984 27.4839H40.4939Z" fill="white"/><path d="M61 67C58.786 67.0674 55.0074 66.7874 53 66.5C36.4647 64.8923 25.5135 52.0816 25.5 34.5C25.9895 27.2518 25.6067 20.7701 28.3147 15.938C28.3147 15.92 28.3237 15.9021 28.3327 15.8886C21.9422 6.61051 8.24068 10.7106 0 18.3451C12.1522 17.2718 15.3542 20.6264 16.6655 27.6905C16.6655 27.6905 19.0367 50.0324 30.9284 62.7639C42.38 76.1781 66.1141 76.5059 80.2288 69.3879L80.8395 63.4645C75 63.5 74.2916 65.762 66.5 66L61 67Z" fill="white"/><path d="M23.4017 34.0091C23.4107 51.5907 36.3578 66.0332 52.8931 67.641C54.9005 67.9284 57.0067 68.0496 59.2206 67.9823C67.0077 67.7443 74.9251 66.2398 80.844 63.46L81.6703 55.4663C75.2844 59.0994 70.093 60.3658 62.7055 60.3658C50.0548 60.3658 39.1601 54.7298 39.1601 36.9461C39.1601 33.4837 39.6137 30.3715 40.4849 27.6276C40.4894 27.5782 40.4939 27.5333 40.5028 27.4839C43.0491 8.84695 64.8252 1.36072 79.618 4.5088C74.485 1.63017 66.8416 0 59.4542 0C39.6047 0 25.005 10.3514 23.4017 34.0091Z" fill="#1C42FF"/></g></g><defs><clipPath id="clip0_945_40838"><rect width="358" height="74" fill="white"/></clipPath><clipPath id="clip1_945_40838"><rect width="81.8634" height="74" fill="white"/></clipPath></defs></svg>