<svg width="215" height="15" viewBox="0 0 215 15" fill="none" xmlns="http://www.w3.org/2000/svg">
<line y1="-0.25" x2="16" y2="-0.25" transform="matrix(1 -8.74228e-08 -8.74228e-08 -1 126 7)" stroke="white" stroke-width="0.5"/>
<line y1="-0.25" x2="121" y2="-0.25" transform="matrix(1 0 0 -1 0 7)" stroke="white" stroke-width="0.5"/>
<line y1="-0.25" x2="16" y2="-0.25" transform="matrix(1 -8.74228e-08 -8.74228e-08 -1 146 7)" stroke="white" stroke-width="0.5"/>
<line y1="-0.25" x2="16" y2="-0.25" transform="matrix(1 -8.74228e-08 -8.74228e-08 -1 167 7)" stroke="white" stroke-width="0.5"/>
<path d="M212.2 0.0126953C211.529 0.0126953 210.943 0.222152 210.441 0.641602L210.231 0.833984C209.686 1.38184 209.412 2.04034 209.412 2.80957C209.412 2.9087 209.417 3.00829 209.426 3.10742L209.465 3.40527C209.5 3.60286 209.564 3.78859 209.656 3.96289L209.66 3.97168L209.654 3.97754L201.013 12.6494V13.335H203.095L207.991 8.4209L208 8.41211L208.009 8.4209L209.654 10.0723L209.66 10.0791L209.656 10.0869C209.587 10.2178 209.533 10.3551 209.496 10.499L209.465 10.6455C209.43 10.8438 209.412 11.042 209.412 11.2402C209.412 11.9133 209.621 12.5014 210.039 13.0049L210.231 13.2158C210.777 13.7638 211.434 14.0381 212.2 14.0381C212.871 14.038 213.457 13.8279 213.959 13.4082L214.169 13.2158C214.715 12.6679 214.987 12.0095 214.987 11.2402C214.987 10.5668 214.779 9.97833 214.36 9.47461L214.169 9.26465C213.623 8.71672 212.967 8.44243 212.2 8.44238C212.101 8.44238 212.002 8.44729 211.903 8.45605L211.607 8.49512C211.41 8.53002 211.225 8.59446 211.051 8.6875L211.043 8.69141L211.036 8.68457L209.392 7.03418L209.383 7.02539L209.392 7.0166L211.036 5.36523L211.043 5.3584L211.051 5.36328C211.181 5.43311 211.318 5.48636 211.462 5.52344L211.607 5.55469C211.805 5.58967 212.003 5.60742 212.2 5.60742C212.871 5.60738 213.457 5.39804 213.959 4.97852L214.169 4.78613C214.715 4.23816 214.987 3.57901 214.987 2.80957C214.987 2.13645 214.778 1.54847 214.36 1.04492L214.169 0.833984C213.623 0.286061 212.967 0.0127418 212.2 0.0126953ZM212.2 9.82227C212.54 9.82231 212.837 9.92929 213.091 10.1416L213.197 10.2393C213.474 10.5167 213.612 10.8505 213.612 11.2402C213.612 11.5812 213.507 11.8796 213.295 12.1348L213.197 12.2412C212.921 12.5186 212.588 12.6572 212.2 12.6572C211.86 12.6572 211.563 12.5514 211.309 12.3389L211.202 12.2412C210.926 11.9638 210.787 11.6298 210.787 11.2402C210.787 10.8992 210.894 10.6009 211.105 10.3457L211.202 10.2393C211.479 9.96178 211.812 9.82227 212.2 9.82227ZM208 6.66113C208.073 6.66113 208.138 6.68186 208.197 6.72266L208.254 6.77051C208.326 6.84293 208.362 6.92824 208.362 7.02539C208.362 7.09795 208.342 7.16382 208.302 7.22266L208.254 7.28027C208.182 7.35258 208.097 7.38867 208 7.38867C207.927 7.38867 207.862 7.36803 207.803 7.32715L207.746 7.28027C207.674 7.2079 207.638 7.12246 207.638 7.02539C207.638 6.95261 207.658 6.88613 207.698 6.82715L207.746 6.77051C207.818 6.69807 207.903 6.66113 208 6.66113ZM201.013 0.714844V1.40039L205.9 6.30371L207.283 4.91699L203.095 0.714844H201.013ZM212.2 1.39258C212.54 1.39262 212.837 1.49877 213.091 1.71094L213.197 1.80859C213.474 2.08596 213.612 2.42007 213.612 2.80957C213.612 3.15045 213.506 3.44903 213.295 3.7041L213.197 3.81152C212.921 4.08872 212.588 4.22749 212.2 4.22754C211.86 4.22754 211.563 4.12158 211.309 3.90918L211.202 3.81152C210.926 3.53404 210.787 3.19928 210.787 2.80957C210.787 2.46881 210.894 2.17101 211.105 1.91602L211.202 1.80859C211.479 1.53114 211.812 1.39258 212.2 1.39258Z" fill="white" stroke="white" stroke-width="0.025"/>
</svg>
