<svg xmlns="http://www.w3.org/2000/svg" viewBox="0 0 16.99545 16.99229"><title>eco</title><path d="M5.4,19.6001a8.29738,8.29738,0,0,1-1.7625-2.6A7.61266,7.61266,0,0,1,3,13.9501a8.30119,8.30119,0,0,1,2.55-6,7.906,7.906,0,0,1,2.1625-1.5,12.98154,12.98154,0,0,1,3.05-.9875,24.07978,24.07978,0,0,1,4.025-.4375,41.8104,41.8104,0,0,1,5.0625.175,44.99067,44.99067,0,0,1,.125,4.875,26.56569,26.56569,0,0,1-.4125,4.0125,13.549,13.549,0,0,1-.95,3.125A7.59668,7.59668,0,0,1,17.1,19.4501a8.65937,8.65937,0,0,1-2.8125,1.9375,7.90946,7.90946,0,0,1-3.0375.6125,8.27525,8.27525,0,0,1-3.175-.6375A8.08451,8.08451,0,0,1,5.4,19.6001Zm2.8-.4a5.55755,5.55755,0,0,0,1.4875.6125,6.51934,6.51934,0,0,0,1.5625.1875,5.93576,5.93576,0,0,0,2.275-.4625,6.62858,6.62858,0,0,0,2.15-1.4875,5.96759,5.96759,0,0,0,.9125-1.2625,8.75448,8.75448,0,0,0,.8-2.125,20.74774,20.74774,0,0,0,.5125-3.175,31.80421,31.80421,0,0,0,.05-4.43748q-1.225-.05-2.7625-.0375a22.19275,22.19275,0,0,0-3.0625.2375,14.77259,14.77259,0,0,0-2.9.725,6.0481,6.0481,0,0,0-2.25,1.375,6.59573,6.59573,0,0,0-1.55,2.225A5.88377,5.88377,0,0,0,5,13.7001a5.66158,5.66158,0,0,0,.5625,2.5875A7.00631,7.00631,0,0,0,6.55,17.8501a17.5289,17.5289,0,0,1,2.775-3.8375,14.55494,14.55494,0,0,1,4.025-3.0125,18.26054,18.26054,0,0,0-3.1375,3.5625A14.75558,14.75558,0,0,0,8.2,19.2001Z" transform="translate(-3 -5.00781)" fill="#fff"/></svg>