<svg xmlns="http://www.w3.org/2000/svg" viewBox="0 0 20.33899 16.27121"><title>envelope</title><path d="M2.74581,17.0173a1.95858,1.95858,0,0,1-1.43644-.5975,1.95847,1.95847,0,0,1-.59746-1.4364V2.78a1.95854,1.95854,0,0,1,.59746-1.43644A1.95854,1.95854,0,0,1,2.74581.74609H19.017a1.95847,1.95847,0,0,1,1.4364.59746A1.95858,1.95858,0,0,1,21.0509,2.78V14.9834a2.04,2.04,0,0,1-2.0339,2.0339ZM10.8814,9.89864,2.74581,4.81389V14.9834H19.017V4.81389Zm0-2.0339L19.017,2.78H2.74581ZM2.74581,4.81389v0Z" transform="translate(-0.71191 -0.74609)" fill="#070707"/></svg>