<?xml version="1.0" encoding="utf-8"?>
<!-- Generator: Adobe Illustrator 24.0.2, SVG Export Plug-In . SVG Version: 6.00 Build 0)  -->
<svg version="1.1" id="Layer_1" xmlns="http://www.w3.org/2000/svg" xmlns:xlink="http://www.w3.org/1999/xlink" x="0px" y="0px"
	 width="320px" height="70px" viewBox="0 0 320 70" style="enable-background:new 0 0 320 70;" xml:space="preserve">
<style type="text/css">
	.st0{fill-rule:evenodd;clip-rule:evenodd;fill:#00ADEE;}
	.st1{fill-rule:evenodd;clip-rule:evenodd;fill:#2E3191;}
	.st2{fill:#2E3191;}
	.st3{fill:#00ADEE;}
</style>
<g>
	<path class="st0" d="M90.1,42.7l0.1-0.6H93l5.9-24.2h-2.8l0.1-0.6h13.9l-0.1,0.6h-2.8l-5.9,24.2h2.8l-0.1,0.6H90.1L90.1,42.7z
		 M111,42.7l0.1-0.6h2.8l5.9-24.2h-0.5c-2.1,0-3.9,0.6-5.5,1.9c-1.6,1.2-2.7,3-3.5,5.2h-0.6l1.9-7.7h24.9l-1.9,7.7H134
		c0.3-2.2,0-4-1-5.2c-1-1.2-2.5-1.9-4.5-1.9H128l-5.9,24.2h2.8l-0.1,0.6H111L111,42.7z M134.9,33.9h6.6l-1.4-8.5L134.9,33.9
		L134.9,33.9z M127.1,42.7l0.1-0.6h0.3c0.5,0,0.9-0.1,1.3-0.3c0.4-0.2,0.7-0.5,0.9-1l14.5-23.9h3.1l3.8,25.1h1.6l-0.2,0.6h-11.8
		l0.1-0.6h1.9l-1.3-7.5h-7.2l-2.9,5c-0.2,0.4-0.4,0.6-0.4,0.8c-0.1,0.2-0.1,0.3-0.2,0.4c-0.1,0.5,0,0.8,0.2,1
		c0.3,0.2,0.8,0.3,1.6,0.3h0.3l-0.1,0.6H127.1L127.1,42.7z M151.9,42.7l0.1-0.6h2.8l5.9-24.2h-2.8l0.1-0.6h13.8l-0.1,0.6H169
		l-5.9,24.1c0.3,0,0.7,0,1,0.1c0.3,0,0.9,0,1.5,0c3.1,0,5.5-0.5,7.3-1.6c1.8-1.1,3.2-2.9,4.3-5.4h0.6l-1.8,7.6H151.9L151.9,42.7z"/>
	<path class="st1" d="M204.9,34.6h0.7l-2,8.1h-0.5c0.1-0.4,0-0.8-0.2-1c-0.2-0.2-0.4-0.3-0.8-0.3c-0.1,0-1.1,0.3-3.1,1
		c-2,0.7-3.9,1-5.8,1c-2,0-3.7-0.3-5.3-0.9c-1.6-0.6-3-1.5-4.1-2.6c-1.2-1.2-2-2.6-2.4-4.2c-0.4-1.6-0.4-3.3,0.1-5.1
		c0.5-2.1,1.5-4.1,2.9-6c1.4-1.9,3.2-3.5,5.2-4.8c1.5-0.9,3-1.7,4.7-2.2c1.7-0.5,3.4-0.7,5.1-0.7c1.9,0,3.7,0.3,5.5,1
		c1.8,0.7,2.7,1,2.8,1c0.4,0,0.7-0.1,0.9-0.3c0.3-0.2,0.5-0.5,0.6-0.9l0.6,0l-2,8.1h-0.6c0-2.7-0.6-4.7-1.7-6.1
		c-1.2-1.4-2.9-2.1-5.2-2.1c-1,0-2,0.2-2.8,0.5c-0.9,0.3-1.7,0.8-2.4,1.5c-0.9,0.8-1.7,1.9-2.3,3.3c-0.6,1.4-1.3,3.7-2.1,6.9
		c-0.8,3.3-1.3,5.7-1.4,6.9c-0.1,1.3-0.1,2.3,0.1,3.2c0.2,1,0.7,1.7,1.6,2.2c0.8,0.5,1.9,0.8,3.1,0.8c2.5,0,4.7-0.7,6.7-2.1
		C202.6,39.1,204,37.1,204.9,34.6L204.9,34.6z M223.8,17.9l-2.8,11.4c0.1,0,0.2,0,0.4,0c0.2,0,0.4,0,0.8,0c2.1,0,3.6-0.4,4.5-1
		c0.9-0.7,1.6-2,2.1-4c0.6-2.6,0.7-4.3,0.1-5.1c-0.6-0.9-1.9-1.3-4-1.3c-0.3,0-0.5,0-0.7,0C224.1,17.9,224,17.9,223.8,17.9
		L223.8,17.9z M206.8,42.7l0.1-0.6h2.8l5.9-24.2h-2.8l0.1-0.6h13.2c4.5,0,7.6,0.5,9.2,1.4c1.6,0.9,2.2,2.5,1.7,4.6
		c-0.4,1.7-1.5,3.1-3.2,4.2c-1.7,1.1-3.9,1.7-6.6,1.9c2.1,0.3,3.6,0.6,4.5,0.9c0.9,0.3,1.5,0.7,1.9,1.3c0.3,0.5,0.5,1,0.6,1.7
		c0,0.7-0.1,1.7-0.5,3.2l-0.9,3.7c-0.2,0.8-0.2,1.3-0.2,1.5c0.1,0.2,0.3,0.3,0.7,0.3c0.3,0,0.6-0.1,1-0.4c0.4-0.2,0.9-0.6,1.4-1.2
		l0.5,0.3c-0.7,0.8-1.6,1.4-2.5,1.8c-1,0.4-2.1,0.6-3.3,0.6c-2.1,0-3.5-0.6-4.3-1.7c-0.8-1.1-0.9-2.7-0.4-4.9l0.9-3.6
		c0.3-1.2,0.2-2.1-0.3-2.5c-0.5-0.5-1.7-0.7-3.5-0.7c-0.4,0-0.8,0-1,0c-0.2,0-0.5,0-0.7,0L218,42.1h2.8l-0.1,0.6H206.8L206.8,42.7z
		 M248.5,30c-1.2,5.1-1.7,8.5-1.3,10.2c0.4,1.7,1.6,2.5,3.6,2.5c2.1,0,3.7-0.8,4.9-2.5c1.2-1.7,2.4-5.1,3.7-10.2
		c1.2-5.1,1.7-8.5,1.3-10.2c-0.4-1.7-1.6-2.5-3.6-2.5c-2,0-3.6,0.8-4.9,2.5C251,21.6,249.7,25,248.5,30L248.5,30z M239.7,30.1
		c0.5-2,1.2-3.7,2.3-5.2c1.1-1.5,2.5-3,4.3-4.3c1.7-1.2,3.4-2.2,5.3-2.8c1.8-0.6,3.7-0.9,5.6-0.9c1.9,0,3.7,0.3,5.2,0.9
		c1.5,0.6,2.8,1.6,3.9,2.8c1.1,1.3,1.9,2.7,2.2,4.3c0.3,1.5,0.2,3.3-0.2,5.3c-0.5,2-1.2,3.7-2.3,5.3c-1.1,1.5-2.5,3-4.3,4.3
		c-1.7,1.2-3.4,2.2-5.2,2.8c-1.8,0.6-3.7,0.9-5.6,0.9c-1.9,0-3.7-0.3-5.2-0.9c-1.5-0.6-2.8-1.5-3.9-2.8c-1.1-1.3-1.9-2.8-2.2-4.3
		C239.2,33.7,239.2,32,239.7,30.1L239.7,30.1z"/>
	<polygon class="st1" points="0,46.7 320,46.7 320,48.7 0,48.7 0,46.7 	"/>
	<polygon class="st0" points="0,45.6 320,45.6 320,46.2 0,46.2 0,45.6 	"/>
	<polygon class="st0" points="0,51.1 320,51.1 320,53 0,53 0,51.1 	"/>
	<polygon class="st1" points="0,53.6 320,53.6 320,54.2 0,54.2 0,53.6 	"/>
	<path class="st0" d="M21.7,32h13.7l-6.2,24.5H15.2L21.7,32L21.7,32z M24.4,21.1h13.9l-2,8H22.3L24.4,21.1L24.4,21.1z"/>
	<path class="st2" d="M21.5,31.8h14.3l-0.1,0.3l-6.2,24.5l0,0.2H14.8l0.1-0.3l6.6-24.5L21.5,31.8L21.5,31.8z M21.9,32.3l-6.4,24H29
		l6.1-24H21.9L21.9,32.3z M24.2,20.8h14.4l-0.1,0.3l-2,8l-0.1,0.2H22l0.1-0.3l2.1-8L24.2,20.8L24.2,20.8z M24.6,21.4l-1.9,7.5h13.4
		l1.9-7.5H24.6L24.6,21.4z"/>
	<path class="st1" d="M73.8,42.2l-2.5,9.1c-4.5,2.4-15.5,1.3-19.5-1c-2.5-1.5-4.6-3.1-6.1-5.4c-3.1-4.9-2.8-11.2,0.2-16.1h17
		c-8.7,6.2-3.2,13.9,6.8,13.9C71,42.6,72.4,42.4,73.8,42.2L73.8,42.2z M47.8,24.9c2.1-2.7,5.4-4.9,9.7-6.6c4.4-1.7,9-2.5,13.8-2.5
		c3.2,0,7,0.7,8.6,1.9l-1.9,7.2H47.8L47.8,24.9z"/>
	<path class="st3" d="M74.2,41.8l-0.1,0.4l-2.5,9.1l0,0.1l-0.1,0.1c-2.2,1.2-5.8,1.5-9.5,1.3c-4.1-0.2-8.2-1.1-10.3-2.4
		c-1.3-0.7-2.4-1.5-3.5-2.4c-1-0.9-2-1.9-2.7-3.1l0,0c-1.6-2.4-2.3-5.2-2.2-8c0-2.9,0.9-5.8,2.4-8.4l0.1-0.1h17.1l0.1,0.5
		c-2.1,1.5-3.4,3.1-3.9,4.6c-0.4,1.3-0.4,2.5,0.1,3.6c0.4,1.1,1.3,2.1,2.5,3c1.9,1.4,4.7,2.2,8,2.2c0.7,0,1.4,0,2-0.1
		c0.7-0.1,1.4-0.2,2.1-0.3L74.2,41.8L74.2,41.8z M73.5,42.5c-0.6,0.1-1.2,0.2-1.7,0.2c-0.7,0.1-1.4,0.1-2.1,0.1
		c-3.4,0-6.3-0.9-8.3-2.3c-1.3-0.9-2.2-2-2.6-3.2c-0.5-1.2-0.5-2.6-0.1-3.9c0.5-1.5,1.6-3,3.5-4.4H46c-1.4,2.5-2.2,5.2-2.3,8
		c0,2.7,0.7,5.4,2.2,7.7l0,0c0.7,1.1,1.6,2.1,2.6,3c1,0.9,2.2,1.6,3.4,2.4C54,51.2,58,52.1,62,52.3c3.5,0.2,7-0.1,9.1-1.2L73.5,42.5
		L73.5,42.5z M47.2,25.2l0.3-0.4c1.1-1.4,2.4-2.6,4.1-3.7c1.6-1.1,3.6-2.1,5.8-2.9c2.2-0.8,4.5-1.5,6.8-1.9c2.3-0.4,4.7-0.6,7.1-0.6
		c1.7,0,3.6,0.2,5.3,0.6c1.5,0.3,2.8,0.8,3.5,1.4l0.1,0.1l0,0.2L78.3,25l-0.1,0.2H47.2L47.2,25.2z M48.3,24.7h29.6l1.8-6.8
		c-0.7-0.5-1.9-0.9-3.2-1.2c-1.6-0.4-3.5-0.5-5.2-0.5c-2.4,0-4.8,0.2-7,0.6c-2.3,0.4-4.5,1-6.7,1.9c-2.2,0.8-4.1,1.8-5.7,2.9
		C50.5,22.5,49.3,23.5,48.3,24.7L48.3,24.7z"/>
</g>
</svg>
