<svg xmlns="http://www.w3.org/2000/svg" viewBox="0 0 14.00048 18.00037"><title>kosarica</title><path d="M7.5.5A3.32388,3.32388,0,0,1,9.97168,1.55762,3.5167,3.5167,0,0,1,11,4.09961h1.75a1.66344,1.66344,0,0,1,1.2363.5293A1.75916,1.75916,0,0,1,14.5,5.90039V16.7002a1.7588,1.7588,0,0,1-.5137,1.2715A1.66248,1.66248,0,0,1,12.75,18.5H2.25a1.66246,1.66246,0,0,1-1.23633-.5283A1.75912,1.75912,0,0,1,.5,16.7002V5.90039a1.75943,1.75943,0,0,1,.51367-1.27148A1.66343,1.66343,0,0,1,2.25,4.09961H4a3.51665,3.51665,0,0,1,1.02832-2.542A3.32392,3.32392,0,0,1,7.5.5ZM2.25,16.7002h10.5V5.90039H11V7.7002a.87537.87537,0,0,1-1.49559.643L9.502,8.34082A.88322.88322,0,0,1,9.25,7.7002V5.90039H5.75V7.7002a.87537.87537,0,0,1-1.49562.643L4.252,8.34082A.88318.88318,0,0,1,4,7.7002V5.90039H2.25ZM7.5,2.2998a1.66343,1.66343,0,0,0-1.23633.5293A1.75836,1.75836,0,0,0,5.75,4.09961h3.5A1.75836,1.75836,0,0,0,8.73633,2.8291,1.66343,1.66343,0,0,0,7.5,2.2998Z" transform="translate(-0.49976 -0.49976)" fill="#1f1f1f"/></svg>