<svg xmlns="http://www.w3.org/2000/svg" viewBox="0 0 18.66665 23.3333"><title>shield</title><path d="M14.0001,25.6668a11.62311,11.62311,0,0,1-6.69377-4.6521,13.39764,13.39764,0,0,1-2.63958-8.0645V5.8335l9.33335-3.5,9.3333,3.5v7.1167a13.39714,13.39714,0,0,1-2.6396,8.0645A11.62289,11.62289,0,0,1,14.0001,25.6668Zm0-2.45a9.49362,9.49362,0,0,0,5.0166-3.85,11.08032,11.08032,0,0,0,1.9834-6.4166V7.43766l-7-2.625-7,2.625V12.9502a11.08083,11.08083,0,0,0,1.98333,6.4166A9.49378,9.49378,0,0,0,14.0001,23.2168Zm-2.3334-4.55h4.6667a1.14579,1.14579,0,0,0,1.1667-1.1666v-3.5a1.14579,1.14579,0,0,0-1.1667-1.1667V11.6668a2.33049,2.33049,0,0,0-3.9812-1.6479,2.24687,2.24687,0,0,0-.6855,1.6479v1.1667a1.14579,1.14579,0,0,0-1.1666,1.1667v3.5a1.14578,1.14578,0,0,0,1.1666,1.1666Zm1.1667-5.8333V11.6668a1.16672,1.16672,0,1,1,2.3333,0v1.1667Z" transform="translate(-4.66675 -2.3335)" fill="#fff"/></svg>