<svg xmlns="http://www.w3.org/2000/svg" viewBox="0 0 25.6667 19.8522"><title>truck</title><path d="M5.83333,19.8522a3.27641,3.27641,0,0,1-2.47916-1.0857,3.70811,3.70811,0,0,1-1.02084-2.6366H0V2.48152A2.46768,2.46768,0,0,1,.68542.729,2.18187,2.18187,0,0,1,2.33333,0H18.6667V4.96305h3.5l3.5,4.96305v6.2038H23.3333a3.7079,3.7079,0,0,1-1.0208,2.6366,3.37337,3.37337,0,0,1-4.9583,0,3.708,3.708,0,0,1-1.0209-2.6366h-7A3.7081,3.7081,0,0,1,8.3125,18.7665,3.27644,3.27644,0,0,1,5.83333,19.8522Zm0-2.4815a1.095,1.095,0,0,0,.83125-.3567,1.33273,1.33273,0,0,0,0-1.7681,1.1467,1.1467,0,0,0-1.6625,0,1.33276,1.33276,0,0,0,0,1.7681A1.095,1.095,0,0,0,5.83333,17.3707Zm-3.5-3.7223h.93334a4.06591,4.06591,0,0,1,1.1375-.8996,2.99662,2.99662,0,0,1,1.42916-.3412,2.99669,2.99669,0,0,1,1.42917.3412A4.06606,4.06606,0,0,1,8.4,13.6484h7.9333V2.48152h-14Zm17.5,3.7223a1.09505,1.09505,0,0,0,.8313-.3567,1.33279,1.33279,0,0,0,0-1.7681,1.1467,1.1467,0,0,0-1.6625,0,1.33279,1.33279,0,0,0,0,1.7681A1.095,1.095,0,0,0,19.8333,17.3707Zm-1.1666-6.2038H23.625L21,7.44457H18.6667Z" fill="#fff"/></svg>