<svg xmlns="http://www.w3.org/2000/svg" viewBox="0 0 16 16"><title>user</title><path d="M8,9a13.75865,13.75865,0,0,1,3.25.3877,14.84453,14.84453,0,0,1,3.1504,1.1621A2.984,2.984,0,0,1,16,13.2002V16H0V13.2002a2.984,2.984,0,0,1,1.59961-2.6504A14.84585,14.84585,0,0,1,4.75,9.3877,13.75846,13.75846,0,0,1,8,9Zm0,2a11.60414,11.60414,0,0,0-2.77539.3379A13.03466,13.03466,0,0,0,2.5,12.3496a.9739.9739,0,0,0-.3623.3506.94046.94046,0,0,0-.1377.5V14H14v-.7998a.94091.94091,0,0,0-.1377-.5.9742.9742,0,0,0-.3623-.3506,13.03582,13.03582,0,0,0-2.7246-1.0117A11.60428,11.60428,0,0,0,8,11ZM8,0a3.852,3.852,0,0,1,2.8252,1.1748A3.85213,3.85213,0,0,1,12,4a3.85213,3.85213,0,0,1-1.1748,2.8252A3.852,3.852,0,0,1,8,8,3.852,3.852,0,0,1,5.1748,6.8252,3.852,3.852,0,0,1,4,4,3.852,3.852,0,0,1,5.1748,1.1748,3.852,3.852,0,0,1,8,0ZM8,2a1.92536,1.92536,0,0,0-1.41211.58789A1.92536,1.92536,0,0,0,6,4a1.92536,1.92536,0,0,0,.58789,1.41211,1.98989,1.98989,0,0,0,2.82422,0A1.92536,1.92536,0,0,0,10,4a1.92536,1.92536,0,0,0-.58789-1.41211A1.92536,1.92536,0,0,0,8,2Z" fill="#1f1f1f"/></svg>